<svg class="uitk-icon uitk-icon-leading uitk-icon-small" aria-hidden="true" viewBox="0 0 24 24" xmlns="http://www.w3.org/2000/svg" xmlns:xlink="http://www.w3.org/1999/xlink"><path d="M12 8.958a1 1 0 1 0 0-2 1 1 0 0 0 0 2Zm0 1.396a.75.75 0 0 0-.75.75v5.113a.75.75 0 1 0 1.5 0v-5.113a.75.75 0 0 0-.75-.75Z"/><path d="M12 2C6.486 2 2 6.486 2 12s4.486 10 10 10 10-4.486 10-10S17.514 2 12 2Zm0 18.5c-4.687 0-8.5-3.813-8.5-8.5 0-4.687 3.813-8.5 8.5-8.5 4.687 0 8.5 3.813 8.5 8.5 0 4.687-3.813 8.5-8.5 8.5Z"/></svg>