<svg class="uitk-icon uitk-icon-spotlight-icon" aria-hidden="true" viewBox="0 0 24 24" xmlns="http://www.w3.org/2000/svg" xmlns:xlink="http://www.w3.org/1999/xlink"><path d="m8.43 16.64-1.13.84v-2.22a.75.75 0 0 0-.75-.75H4.42a.42.42 0 0 1-.42-.42v-9.1c0-.24.19-.42.42-.42h12.83c.23 0 .42.18.42.41v3a.75.75 0 1 0 1.5 0v-3a1.92 1.92 0 0 0-1.92-1.91H4.42A1.92 1.92 0 0 0 2.5 4.98v9.1A1.92 1.92 0 0 0 4.42 16H5.8v2.98a.75.75 0 0 0 1.2.6l2.33-1.75a.75.75 0 0 0-.9-1.2z"/><path d="M20.75 10.29h-8.94a.75.75 0 0 0-.75.75v7.3c0 .42.34.76.75.76h2.83l3.3 2.79a.76.76 0 0 0 1.1-.17.75.75 0 0 0 .13-.4V19.1h1.58a.75.75 0 0 0 .75-.75v-7.31a.75.75 0 0 0-.75-.75zm-.75 7.3h-1.58a.75.75 0 0 0-.75.76v1.35l-2.27-1.92a.76.76 0 0 0-.48-.18h-2.36v-5.81H20v5.8z"/></svg>